<svg xmlns="http://www.w3.org/2000/svg" viewBox="0 0 600 400" width="100%" height="100%" style="background-color: #FFFFFF; font-family: -apple-system, BlinkMacSystemFont, 'Segoe UI', Roboto, Arial, sans-serif;">
<text x="300.0" y="30" text-anchor="middle" font-size="16" font-weight="bold" fill="#2C3E50">Pruebas de Concurrencia: Latencia Promedio (ms)</text>
<line x1="60" y1="350.0" x2="560" y2="350.0" stroke="#E3E3E3" stroke-width="1"/>
<text x="50" y="354.0" text-anchor="end" font-size="10" fill="#7F8C8D">0 ms</text>
<line x1="60" y1="285.1199847748231" x2="560" y2="285.1199847748231" stroke="#E3E3E3" stroke-width="1"/>
<text x="50" y="289.1199847748231" text-anchor="end" font-size="10" fill="#7F8C8D">200 ms</text>
<line x1="60" y1="220.23996954964616" x2="560" y2="220.23996954964616" stroke="#E3E3E3" stroke-width="1"/>
<text x="50" y="224.23996954964616" text-anchor="end" font-size="10" fill="#7F8C8D">400 ms</text>
<line x1="60" y1="155.35995432446927" x2="560" y2="155.35995432446927" stroke="#E3E3E3" stroke-width="1"/>
<text x="50" y="159.35995432446927" text-anchor="end" font-size="10" fill="#7F8C8D">600 ms</text>
<line x1="60" y1="90.47993909929232" x2="560" y2="90.47993909929232" stroke="#E3E3E3" stroke-width="1"/>
<text x="50" y="94.47993909929232" text-anchor="end" font-size="10" fill="#7F8C8D">800 ms</text>
<line x1="60" y1="50" x2="60" y2="350" stroke="#888888" stroke-width="1.5"/>
<line x1="60" y1="350" x2="560" y2="350" stroke="#888888" stroke-width="1.5"/>
<rect x="99.66666666666666" y="177.69814356649766" width="41.666666666666664" height="172.30185643350234" fill="#5D8BF4" rx="2" opacity="0.9"/>
<text x="120.49999999999999" y="172.69814356649766" text-anchor="middle" font-size="9" fill="#333333">531</text>
<rect x="145.33333333333331" y="113.52532050727518" width="41.666666666666664" height="236.47467949272482" fill="#00C896" rx="2" opacity="0.9"/>
<text x="166.16666666666666" y="108.52532050727518" text-anchor="middle" font-size="9" fill="#111111" font-weight="bold">729</text>
<text x="143.33333333333331" y="370" text-anchor="middle" font-size="11" font-weight="bold" fill="#34495E">1 VUs</text>
<rect x="266.3333333333333" y="165.997032820637" width="41.666666666666664" height="184.002967179363" fill="#5D8BF4" rx="2" opacity="0.9"/>
<text x="287.16666666666663" y="160.997032820637" text-anchor="middle" font-size="9" fill="#333333">567</text>
<rect x="312.0" y="112.96086437481611" width="41.666666666666664" height="237.0391356251839" fill="#00C896" rx="2" opacity="0.9"/>
<text x="332.8333333333333" y="107.96086437481611" text-anchor="middle" font-size="9" fill="#111111" font-weight="bold">731</text>
<text x="310.0" y="370" text-anchor="middle" font-size="11" font-weight="bold" fill="#34495E">5 VUs</text>
<rect x="432.99999999999994" y="104.69839443588987" width="41.666666666666664" height="245.30160556411013" fill="#5D8BF4" rx="2" opacity="0.9"/>
<text x="453.83333333333326" y="99.69839443588987" text-anchor="middle" font-size="9" fill="#333333">756</text>
<rect x="478.66666666666663" y="89.13043478260869" width="41.666666666666664" height="260.8695652173913" fill="#00C896" rx="2" opacity="0.9"/>
<text x="499.49999999999994" y="84.13043478260869" text-anchor="middle" font-size="9" fill="#111111" font-weight="bold">804</text>
<text x="476.66666666666663" y="370" text-anchor="middle" font-size="11" font-weight="bold" fill="#34495E">10 VUs</text>
<rect x="380" y="20" width="10" height="10" fill="#5D8BF4" rx="2"/>
<text x="400" y="28" font-size="10" fill="#333333">PostgreSQL</text>
<rect x="480" y="20" width="10" height="10" fill="#00C896" rx="2"/>
<text x="500" y="28" font-size="10" fill="#333333">MongoDB</text>
</svg>