<svg xmlns="http://www.w3.org/2000/svg" viewBox="0 0 600 400" width="100%" height="100%" style="background-color: #FFFFFF; font-family: -apple-system, BlinkMacSystemFont, 'Segoe UI', Roboto, Arial, sans-serif;">
<text x="300.0" y="30" text-anchor="middle" font-size="16" font-weight="bold" fill="#2C3E50">Escalabilidad: Crecimiento de Dataset (ms)</text>
<line x1="65" y1="350.0" x2="560" y2="350.0" stroke="#E3E3E3" stroke-width="1"/>
<text x="55" y="354.0" text-anchor="end" font-size="10" fill="#7F8C8D">0 ms</text>
<line x1="65" y1="276.5172713805347" x2="560" y2="276.5172713805347" stroke="#E3E3E3" stroke-width="1"/>
<text x="55" y="280.5172713805347" text-anchor="end" font-size="10" fill="#7F8C8D">500 ms</text>
<line x1="65" y1="203.03454276106942" x2="560" y2="203.03454276106942" stroke="#E3E3E3" stroke-width="1"/>
<text x="55" y="207.03454276106942" text-anchor="end" font-size="10" fill="#7F8C8D">1000 ms</text>
<line x1="65" y1="129.55181414160413" x2="560" y2="129.55181414160413" stroke="#E3E3E3" stroke-width="1"/>
<text x="55" y="133.55181414160413" text-anchor="end" font-size="10" fill="#7F8C8D">1500 ms</text>
<line x1="65" y1="56.069085522138835" x2="560" y2="56.069085522138835" stroke="#E3E3E3" stroke-width="1"/>
<text x="55" y="60.069085522138835" text-anchor="end" font-size="10" fill="#7F8C8D">2000 ms</text>
<line x1="65" y1="50" x2="65" y2="350" stroke="#888888" stroke-width="1.5"/>
<line x1="65" y1="350" x2="560" y2="350" stroke="#888888" stroke-width="1.5"/>
<line x1="65.0" y1="350" x2="65.0" y2="355" stroke="#888888" stroke-width="1"/>
<text x="65.0" y="370" text-anchor="middle" font-size="10" fill="#7F8C8D">1,000</text>
<line x1="155.9183673469388" y1="350" x2="155.9183673469388" y2="355" stroke="#888888" stroke-width="1"/>
<text x="155.9183673469388" y="370" text-anchor="middle" font-size="10" fill="#7F8C8D">10,000</text>
<line x1="307.44897959183675" y1="350" x2="307.44897959183675" y2="355" stroke="#888888" stroke-width="1"/>
<text x="307.44897959183675" y="370" text-anchor="middle" font-size="10" fill="#7F8C8D">25,000</text>
<line x1="560.0" y1="350" x2="560.0" y2="355" stroke="#888888" stroke-width="1"/>
<text x="560.0" y="370" text-anchor="middle" font-size="10" fill="#7F8C8D">50,000</text>
<circle cx="65.0" cy="89.13043478260869" r="4" fill="#5D8BF4"/>
<circle cx="65.0" cy="239.83175394455287" r="4" fill="#00C896"/>
<circle cx="105.40816326530611" cy="271.66741129165" r="4" fill="#5D8BF4"/>
<circle cx="105.40816326530611" cy="252.3899522656195" r="4" fill="#00C896"/>
<circle cx="155.9183673469388" cy="272.4933571613328" r="4" fill="#5D8BF4"/>
<circle cx="155.9183673469388" cy="248.499776612505" r="4" fill="#00C896"/>
<circle cx="307.44897959183675" cy="271.3205728125661" r="4" fill="#5D8BF4"/>
<circle cx="307.44897959183675" cy="244.71100712488536" r="4" fill="#00C896"/>
<circle cx="560.0" cy="271.9099042960942" r="4" fill="#5D8BF4"/>
<circle cx="560.0" cy="236.57646906671056" r="4" fill="#00C896"/>
<polyline points="65.0,89.13043478260869 105.40816326530611,271.66741129165 155.9183673469388,272.4933571613328 307.44897959183675,271.3205728125661 560.0,271.9099042960942" fill="none" stroke="#5D8BF4" stroke-width="2.5"/>
<polyline points="65.0,239.83175394455287 105.40816326530611,252.3899522656195 155.9183673469388,248.499776612505 307.44897959183675,244.71100712488536 560.0,236.57646906671056" fill="none" stroke="#00C896" stroke-width="2.5"/>
<rect x="380" y="20" width="10" height="10" fill="#5D8BF4" rx="2"/>
<text x="400" y="28" font-size="10" fill="#333333">PostgreSQL</text>
<rect x="480" y="20" width="10" height="10" fill="#00C896" rx="2"/>
<text x="500" y="28" font-size="10" fill="#333333">MongoDB</text>
</svg>